<?xml version="1.0" encoding="UTF-8"?>
<!DOCTYPE svg PUBLIC "-//W3C//DTD SVG 1.1//EN" "http://www.w3.org/Graphics/SVG/1.1/DTD/svg11.dtd">
<!-- Creator: CorelDRAW 2021.5 -->
<svg xmlns="http://www.w3.org/2000/svg" xml:space="preserve" width="7.24848in" height="1.54194in" version="1.1" style="shape-rendering:geometricPrecision; text-rendering:geometricPrecision; image-rendering:optimizeQuality; fill-rule:evenodd; clip-rule:evenodd"
viewBox="0 0 7174.35 1526.17"
 xmlns:xlink="http://www.w3.org/1999/xlink"
 xmlns:xodm="http://www.corel.com/coreldraw/odm/2003">
 <defs>
  <style type="text/css">
   <![CDATA[
    .fil0 {fill:#303030}
   ]]>
  </style>
 </defs>
 <g id="Layer_x0020_1">
  <metadata id="CorelCorpID_0Corel-Layer"/>
  <g id="_1809976558848">
   <path class="fil0" d="M750.63 822.1c0,253.34 -152.3,360.62 -427.39,360.62 -111.9,-0.01 -211.36,-13.99 -295.26,-49.77 -18.66,-7.75 -27.98,-17.08 -27.98,-32.62 0,-12.46 9.32,-43.51 20.21,-69.94 9.31,-21.81 20.17,-27.99 38.83,-27.99 10.9,-0.02 34.21,7.8 48.2,12.44 68.36,26.42 136.75,40.43 233.11,40.43 149.2,-0.01 254.85,-38.88 254.85,-192.74 0,-59.05 -13.99,-110.36 -150.74,-166.31l-122.77 -49.71c-124.34,-49.76 -183.39,-132.08 -183.39,-253.3 0.01,-242.45 153.87,-348.12 418.06,-348.12 83.94,0 170.96,9.31 242.44,32.62 18.67,6.21 26.43,15.54 26.43,34.19 0,9.31 -6.22,38.88 -15.53,68.4 -6.22,18.61 -18.66,24.85 -32.65,24.85 -10.86,-0.02 -34.19,-3.09 -51.28,-7.77 -76.17,-20.22 -147.66,-27.97 -205.15,-27.97 -146.09,-0.02 -228.45,57.5 -228.45,191.15 0,69.92 21.76,121.23 136.76,167.87l111.9 45.05c146.08,49.69 209.79,127.44 209.8,248.62z"/>
   <path class="fil0" d="M1125.27 1182.72c-91.7,0 -211.37,-21.78 -211.37,-146.12 0,-34.19 6.22,-79.23 15.53,-125.83l104.14 -484.91c4.68,-20.24 12.44,-34.21 38.87,-34.21l74.58 -0.01c17.09,0 26.44,7.81 26.44,21.79 0.01,6.2 -1.54,21.76 -3.13,29.52l-99.47 458.44c-6.22,29.53 -10.86,62.16 -10.86,87.04 0,60.6 57.5,74.59 124.32,74.59 77.71,-0.02 136.78,-12.44 174.07,-27.97 9.32,-4.65 26.43,-13.99 35.74,-24.83 6.22,-9.35 13.99,-26.43 18.63,-49.77l113.46 -533.05c4.68,-21.79 15.57,-35.76 40.42,-35.76l71.49 -0.01c17.11,0 27.97,7.81 27.97,23.34 0,6.2 -1.55,15.54 -3.09,21.76l-146.1 691.58c-15.53,74.57 -31.07,135.18 -60.6,192.68 -77.7,150.77 -244.01,205.18 -526.87,205.18 -29.52,0 -40.38,-12.44 -40.38,-34.23 0.01,-17.09 0,-29.52 1.55,-43.51 1.55,-23.27 10.86,-45.05 37.29,-45.05 265.78,-0.01 349.67,-48.15 393.21,-116.55 21.76,-34.18 35.74,-74.58 45.06,-119.64l7.77 -35.79c-74.61,37.32 -160.09,51.32 -248.66,51.32z"/>
   <path class="fil0" d="M1868.19 1165.56l-74.59 0c-18.66,0 -27.97,-9.27 -27.97,-23.26 0,-7.82 3.09,-23.33 4.67,-29.52l122.78 -581.26c12.44,-54.38 37.28,-77.69 71.49,-93.23 97.91,-45.07 228.45,-65.28 346.57,-65.28 99.47,-0.02 206.7,29.52 206.7,136.76 0,32.63 -4.67,83.93 -15.53,132.11l-104.14 487.96c-4.67,21.72 -13.99,35.73 -37.29,35.73l-74.61 -0.01c-18.62,0 -27.97,-9.27 -27.97,-23.26 0,-7.82 3.13,-23.33 4.68,-31.06l97.91 -455.38c4.64,-23.33 12.41,-62.15 12.41,-85.46 0,-57.52 -46.61,-76.16 -121.22,-76.16 -87.01,-0.02 -144.53,20.21 -178.72,34.2 -9.31,4.64 -23.3,10.86 -34.19,20.2 -7.77,7.76 -13.99,23.3 -18.63,45.06l-114.99 536.14c-4.67,21.72 -13.99,35.73 -37.32,35.72z"/>
   <path class="fil0" d="M3203.28 705.57c9.31,-31.08 13.99,-68.39 13.99,-110.32 0,-68.36 -31.07,-107.23 -136.75,-107.23 -77.7,-0.02 -132.11,23.3 -172.53,63.72 -37.3,38.83 -57.51,86.99 -76.14,153.84l371.43 -0.01zm-402.53 198.93c0,121.25 68.39,160.06 189.62,160.06 76.16,-0.02 121.21,-9.28 174.07,-23.28 13.95,-3.1 34.16,-9.34 45.06,-9.34 12.44,-0 18.64,7.79 21.75,18.63 6.22,18.68 14,43.51 14,57.5 0,15.59 -10.9,27.97 -32.66,35.78 -76.12,29.51 -169.4,38.87 -257.96,38.87 -202.02,-0.01 -295.3,-99.46 -295.3,-265.78 0,-149.25 43.54,-327.92 158.54,-441.36 76.13,-74.61 166.29,-101.02 285.95,-101.02 186.49,-0.01 243.99,83.94 243.99,205.16 0,51.26 -4.64,110.32 -21.76,180.27 -6.22,24.87 -10.86,37.32 -23.3,46.61 -7.77,6.23 -21.76,9.35 -37.29,9.35l-456.94 -0c-4.64,31.05 -7.77,60.59 -7.77,88.57z"/>
   <path class="fil0" d="M3762.84 1064.55c59.04,0 93.23,-4.63 142.97,-15.52 15.54,-3.12 31.06,-9.29 41.96,-9.29 15.55,-0.02 20.22,7.75 23.31,21.73 4.68,17.08 12.44,46.61 12.44,62.21 0,17.07 -15.54,24.81 -34.21,31.06 -69.93,21.7 -142.97,27.98 -222.22,27.98 -169.41,-0.01 -279.77,-85.48 -279.77,-264.23 0.01,-142.99 45.09,-332.55 161.63,-446 68.41,-66.88 153.88,-97.93 287.54,-97.93 69.92,-0.01 127.44,6.22 172.5,20.21 18.67,6.2 23.3,17.1 23.3,29.52 0,10.89 -12.44,52.87 -20.2,71.5 -6.22,13.99 -17.08,18.66 -27.98,18.66 -12.4,-0.01 -31.06,-4.68 -45.05,-7.77 -29.53,-6.23 -66.82,-10.89 -121.23,-10.89 -94.78,-0.01 -144.52,31.1 -184.93,73.03 -69.95,76.15 -99.47,216.05 -99.47,320.15 0,111.9 49.73,175.6 169.41,175.58z"/>
   <path class="fil0" d="M4233.79 1165.56l-74.58 0c-20.21,0 -29.56,-9.27 -29.56,-23.26 0,-7.82 3.13,-21.78 4.67,-27.97l228.44 -1075.45c4.72,-24.88 17.11,-38.87 40.48,-38.87l69.89 -0.01c20.19,0 29.51,9.36 29.51,24.89 0,4.66 0,10.86 -1.54,20.21l-85.46 397.83c65.27,-49.71 172.45,-68.37 267.25,-68.37 93.25,-0.01 202.08,24.88 202.08,132.12 0,34.2 -4.61,80.8 -15.47,124.31l-105.76 498.85c-4.6,21.72 -12.4,35.73 -38.83,35.73l-73.06 -0.01c-20.19,0 -27.97,-9.27 -27.97,-23.26 0,-6.27 1.54,-18.62 3.07,-27.97l99.51 -458.47c4.72,-23.33 10.86,-65.28 10.86,-87.04 0,-57.51 -46.62,-73.03 -119.69,-73.03 -82.28,-0.01 -147.56,18.66 -178.71,35.74 -12.4,4.65 -24.79,9.34 -34.12,20.2 -9.32,9.31 -17.11,23.3 -23.37,54.37l-110.33 523.73c-4.64,21.72 -12.41,35.73 -37.29,35.72z"/>
   <path class="fil0" d="M5124.35 1165.56l-76.14 0c-18.65,0 -26.44,-9.27 -26.44,-23.26 0.01,-9.35 3.07,-23.33 4.72,-31.06l121.23 -568.83c10.86,-49.71 24.79,-71.47 55.95,-96.35 46.63,-37.31 156.99,-71.49 281.29,-71.49 32.59,-0.01 65.27,1.55 83.93,6.22 12.4,4.66 17.01,13.99 17.01,29.52 0,10.88 -4.61,49.74 -13.94,69.95 -4.6,13.97 -17.11,20.21 -32.58,20.21 -14.04,-0.02 -51.34,-1.55 -69.99,-1.55 -54.41,0 -116.62,9.32 -144.48,24.85 -12.5,6.2 -27.97,17.11 -34.23,27.97 -6.25,9.31 -10.86,24.88 -15.58,46.64l-113.43 531.47c-4.61,21.72 -13.93,35.73 -37.3,35.72z"/>
   <path class="fil0" d="M6524.77 1165.56l-74.6 0c-18.65,0 -27.98,-9.27 -27.98,-23.26 0,-7.82 3.07,-23.33 4.72,-29.52l122.76 -581.26c12.41,-54.38 37.3,-77.69 71.42,-93.23 97.98,-45.07 228.52,-65.28 346.56,-65.28 99.51,-0.02 206.69,29.52 206.69,136.76 0.01,32.63 -4.61,83.93 -15.47,132.11l-104.11 487.96c-4.73,21.72 -14.05,35.73 -37.31,35.73l-74.59 -0.01c-18.65,0 -27.98,-9.27 -27.98,-23.26 0,-7.82 3.07,-23.33 4.61,-31.06l97.97 -455.38c4.61,-23.33 12.4,-62.15 12.4,-85.46 0.01,-57.52 -46.62,-76.16 -121.23,-76.16 -86.99,-0.02 -144.48,20.21 -178.71,34.2 -9.32,4.64 -23.37,10.86 -34.23,20.2 -7.79,7.76 -13.93,23.3 -18.65,45.06l-114.96 536.14c-4.73,21.72 -13.95,35.73 -37.31,35.72z"/>
   <path class="fil0" d="M6173.49 711.2c-13.17,10.05 -16.46,15.88 -17.56,22.8 -12.29,84.56 -37.3,193.4 -73.5,250.9 -40.37,65.29 -108.72,85.48 -184.97,85.48 -55.08,-0.02 -95.89,-7.43 -123.53,-28.47 -9.44,-7.24 -21.94,-8.97 -31.49,-1.73l-72.73 55.55c-14.81,11.31 -13.83,33.65 1.43,44.31 54.09,37.65 129.56,48.49 215.46,48.49 129.02,-0.01 231.59,-32.67 296.87,-122.8 73.29,-99.42 110.15,-279.65 120.02,-397.21 1.98,-23.37 -24.46,-37.88 -43.12,-23.66l-86.88 66.35z"/>
   <path class="fil0" d="M5717.98 899.56c10.75,-8.37 13.16,-12.48 13.6,-17.46 7.24,-88.14 35.87,-241.91 92.92,-312.14 38.84,-49.72 97.86,-69.95 166.21,-69.95 68.02,-0.01 119.69,8.81 148.43,45.31 9,11.33 25.34,13.3 36.75,4.54l76.35 -58.3c12.73,-9.67 14.04,-28.12 3.51,-40.05 -54.08,-61 -146.24,-71.13 -251.01,-71.13 -107.29,-0.02 -208.66,24.69 -278.22,104.1 -97.96,111.89 -129.12,288.62 -134.83,456.47 -0.76,22.92 25.13,36.65 43.34,22.64l82.95 -64.02z"/>
   <path class="fil0" d="M6034.04 783.35c0,41.13 -33.35,74.47 -74.38,74.47 -41.14,0 -74.49,-33.34 -74.49,-74.47 0,-41.15 33.35,-74.48 74.49,-74.48 41.03,-0.02 74.38,33.34 74.38,74.48z"/>
  </g>
 </g>
</svg>
